<svg xmlns="http://www.w3.org/2000/svg" xmlns:xlink="http://www.w3.org/1999/xlink" xmlns:lucid="lucid" width="360" height="360"><g transform="translate(-140 -140)" lucid:page-tab-id="0_0"><path d="M320 400c0 44.18-35.82 80-80 80s-80-35.82-80-80 35.82-80 80-80 80 35.82 80 80z" stroke="#000" stroke-opacity="0" stroke-width="3" fill="#5abaa7" fill-opacity=".62"/><use xlink:href="#a" transform="matrix(1,0,0,1,165,325) translate(42.41240740740751 108.222222222222)"/><path d="M400 320c0 44.18-35.82 80-80 80s-80-35.82-80-80 35.82-80 80-80 80 35.82 80 80z" stroke="#000" stroke-opacity="0" stroke-width="3" fill="#ffc374" fill-opacity=".62"/><use xlink:href="#b" transform="matrix(1,0,0,1,245,245) translate(42.41240740740751 108.222222222222)"/><path d="M480 240c0 44.18-35.82 80-80 80s-80-35.82-80-80 35.82-80 80-80 80 35.82 80 80z" stroke="#000" stroke-opacity="0" stroke-width="3" fill="#b391b5" fill-opacity=".62"/><use xlink:href="#a" transform="matrix(1,0,0,1,325,165) translate(42.41240740740751 108.222222222222)"/><defs><path fill="#333" d="M30-248c87 1 191-15 191 75 0 78-77 80-158 76V0H30v-248zm33 125c57 0 124 11 124-50 0-59-68-47-124-48v98" id="c"/><use transform="matrix(0.27160493827160415,0,0,0.27160493827160415,0,0)" xlink:href="#c" id="a"/><path fill="#333" d="M185-189c-5-48-123-54-124 2 14 75 158 14 163 119 3 78-121 87-175 55-17-10-28-26-33-46l33-7c5 56 141 63 141-1 0-78-155-14-162-118-5-82 145-84 179-34 5 7 8 16 11 25" id="d"/><use transform="matrix(0.27160493827160415,0,0,0.27160493827160415,0,0)" xlink:href="#d" id="b"/></defs></g></svg>