<svg xmlns="http://www.w3.org/2000/svg" xmlns:lucid="lucid" width="200" height="200"><g lucid:page-tab-id="0_0"><path d="M180 100c0 44.18-35.82 80-80 80s-80-35.82-80-80 35.82-80 80-80 80 35.82 80 80z" stroke="#000" stroke-opacity="0" stroke-width="3" fill="#19967d"/><path d="M143.12 65.86c0 9.5-7.7 17.18-17.17 17.18-9.5 0-17.18-7.7-17.18-17.18s7.7-17.17 17.18-17.17 17.17 7.68 17.17 17.16zM143.12 134.14c0 9.48-7.7 17.17-17.17 17.17-9.5 0-17.18-7.68-17.18-17.16 0-9.5 7.7-17.18 17.18-17.18s17.17 7.7 17.17 17.18zM74.8 99.17c0 9.5-7.7 17.18-17.18 17.18-9.5 0-17.18-7.7-17.18-17.18S48.14 82 57.62 82c9.5 0 17.17 7.7 17.17 17.17z" stroke="#000" stroke-opacity="0" stroke-width="3" fill="#fff"/><path d="M77.45 89.5l28.66-13.97" stroke="#fff" stroke-width="10" fill="none"/><path d="M79.76 93.94l-5.3 2.6-.25-1.82-1.7-4.12-2.37-3.1 5.25-2.55zM109.36 70.32l1.7 4.12 2.37 3.1-5.24 2.54-4.4-9 5.32-2.57z" fill="#fff"/><path d="M61.2 96.53l58.32-28.94M61.32 96.47l-7.28 3.62M119.4 67.65l4.6-2.28M61.18 101.03l59.4 30.37M61.3 101.1l-4.57-2.35M120.46 131.34l4.57 2.33" stroke="#fff" stroke-width="10" fill="none"/></g></svg>